<?xml version="1.0" standalone="no"?>
<!DOCTYPE svg PUBLIC "-//W3C//DTD SVG 20010904//EN"
 "http://www.w3.org/TR/2001/REC-SVG-20010904/DTD/svg10.dtd">
<svg version="1.0" xmlns="http://www.w3.org/2000/svg"
 width="180.000000pt" height="180.000000pt" viewBox="0 0 180.000000 180.000000"
 preserveAspectRatio="xMidYMid meet">

<g transform="translate(0.000000,180.000000) scale(0.100000,-0.100000)"
fill="#000000" stroke="none">
<path d="M0 900 l0 -900 900 0 900 0 0 900 0 900 -900 0 -900 0 0 -900z m831
530 c17 -10 19 -22 19 -123 0 -86 4 -118 16 -135 18 -26 41 -28 66 -5 15 14
18 32 18 127 0 61 4 117 9 125 14 22 106 27 136 7 24 -16 25 -19 25 -134 0
-78 -4 -122 -12 -130 -7 -7 -36 -12 -64 -12 -84 0 -84 1 -84 -297 0 -285 0
-283 73 -283 24 0 53 -7 65 -16 20 -14 22 -23 22 -125 0 -143 -3 -149 -83
-149 -36 0 -68 5 -75 12 -8 8 -12 49 -12 121 0 124 -8 147 -50 147 -42 0 -50
-23 -50 -147 0 -72 -4 -113 -12 -121 -16 -16 -130 -16 -146 0 -8 8 -12 51 -12
129 0 110 1 119 22 133 12 9 43 16 68 16 25 0 51 5 58 12 9 9 12 83 12 272 0
302 2 296 -86 296 -69 0 -74 10 -74 149 0 102 2 111 22 125 25 18 100 21 129
6z"/>
</g>
</svg>
